<?xml version="1.0" encoding="iso-8859-1"?>
<!-- Generator: Adobe Illustrator 16.0.0, SVG Export Plug-In . SVG Version: 6.00 Build 0)  -->
<!DOCTYPE svg PUBLIC "-//W3C//DTD SVG 1.1//EN" "http://www.w3.org/Graphics/SVG/1.1/DTD/svg11.dtd">
<svg version="1.1" id="Layer_1" xmlns="http://www.w3.org/2000/svg" xmlns:xlink="http://www.w3.org/1999/xlink" x="0px" y="0px"
	 width="78.402px" height="436.795px" viewBox="310.799 61.603 78.402 436.795"
	 style="enable-background:new 310.799 61.603 78.402 436.795;" xml:space="preserve">
<path fill="#3e4044" d="M347.33,384.23c-17.125,9.277-36.531,19.797-36.531,41.336c0,21.543,19.41,32.059,36.531,41.34
	c15.77,8.547,30.668,16.617,30.668,31.492h5.585h5.618c0-21.543-19.41-32.06-36.531-41.341
	c-15.772-8.543-30.672-16.616-30.672-31.491s14.898-22.945,30.668-31.497c17.125-9.277,36.531-19.793,36.531-41.336
	c0-21.535-19.41-32.047-36.535-41.32c-15.77-8.539-30.664-16.605-30.664-31.465c0-14.871,14.898-22.938,30.668-31.484
	c17.125-9.273,36.531-19.785,36.531-41.32s-19.41-32.047-36.535-41.32c-15.77-8.539-30.664-16.605-30.664-31.461
	c0-14.852,14.896-22.914,30.664-31.449c17.125-9.277,36.535-19.785,36.535-41.312h-5.479h-5.725
	c0,14.859-14.898,22.918-30.668,31.461c-17.121,9.27-36.527,19.773-36.527,41.301c0,21.531,19.41,32.043,36.531,41.312
	c15.77,8.54,30.668,16.605,30.668,31.469s-14.896,22.93-30.664,31.477c-17.129,9.277-36.535,19.789-36.535,41.328
	c0,21.531,19.41,32.043,36.531,41.312c15.77,8.543,30.668,16.609,30.668,31.473c0,14.875-14.898,22.945-30.668,31.496V384.23z"/>
</svg>
